<?xml version="1.0" encoding="UTF-8"?>
<!-- Created with Inkscape (http://www.inkscape.org/) -->
<svg width="250mm" height="100mm" version="1.1" viewBox="0 0 250 100" xml:space="preserve"
     xmlns="http://www.w3.org/2000/svg"><defs><linearGradient id="linearGradient2488" x1="203.08" x2="77.3" y1="131.46" y2="22.771" gradientTransform="matrix(1.2343 0 0 1.2343 -35.673 -76.595)" gradientUnits="userSpaceOnUse"><stop stop-color="#ff5b04" offset="0"/><stop stop-color="#ff8506" offset=".42391"/><stop stop-color="#ffcc32" offset="1"/></linearGradient></defs><g><path d="m36.198 11.775-32.16 48.24h32.16v32.16l32.16-48.24h-32.16zm76.932 30.308v49.054h10.236v-49.054zm-43.573 2.0159v47.039h10.371v-18.211h22.493v-9.4074h-22.493v-10.013h25.524v-9.4079zm123.95 10.336c-2.5339 0.05879-4.5862 0.73516-6.1576 2.0287-1.7959 1.4783-3.2104 3.4495-4.243 5.9134v-7.2573h-10.236v36.018h10.236v-13.305c0-4.3455 0.96549-7.5487 2.896-9.6095 1.9755-2.0607 4.6693-3.0909 8.0815-3.0909h0.53881v-10.684c-0.38164-0.01681-0.75367-0.02125-1.1156-0.01289zm23.609 0.01289c-2.6489 0-5.0733 0.49253-7.2733 1.4781-2.1551 0.98556-4.0187 2.3294-5.59 4.0317-1.5714 1.7024-2.8058 3.6961-3.7037 5.9808-0.85304 2.2847-1.2797 4.7038-1.2797 7.2573v0.13418c0 2.7775 0.47153 5.3089 1.4144 7.5936 0.94284 2.2399 2.2446 4.1885 3.9058 5.8461 1.7061 1.6575 3.7044 2.9342 5.9942 3.8302 2.3346 0.89599 4.8489 1.3439 7.5427 1.3439 3.2775 0 6.1285-0.58222 8.5529-1.747 2.4244-1.2096 4.4896-2.8671 6.1957-4.9726l-5.8594-5.1741c-1.4367 1.2992-2.8283 2.2396-4.1752 2.822-1.3469 0.58237-2.8732 0.87401-4.5793 0.87401-2.2897 0-4.2207-0.58275-5.7921-1.7475-1.5265-1.2096-2.5364-2.9788-3.0302-5.3083h25.119c0.0449-0.49277 0.0673-0.91869 0.0673-1.2771 0.0448-0.35838 0.0673-0.78378 0.0673-1.2766v-0.1347c0-2.5535-0.35873-4.9947-1.0771-7.3242-0.67345-2.3743-1.7512-4.4577-3.2328-6.2497-1.4367-1.8367-3.2549-3.2928-5.4548-4.368-2.2-1.0752-4.804-1.6123-7.8121-1.6123zm-69.164 0.26837c-3.053 0-5.657 0.26908-7.8121 0.80665-2.155 0.53759-4.2202 1.232-6.1957 2.0832l2.5593 7.7946c1.6612-0.62719 3.2324-1.0972 4.714-1.4108 1.5265-0.35839 3.2773-0.53777 5.2528-0.53777 2.5591 0 4.4896 0.56019 5.7916 1.6801 1.302 1.12 1.9532 2.7549 1.9532 4.9052v0.60462c-1.302-0.44799-2.6487-0.80625-4.0405-1.075-1.3469-0.26879-2.9411-0.40306-4.7818-0.40306-2.155 0-4.1304 0.246-5.9263 0.73878-1.751 0.44799-3.2773 1.1425-4.5793 2.0832-1.2571 0.94078-2.2451 2.1283-2.9634 3.5618-0.71835 1.4336-1.0776 3.1356-1.0776 5.1068v0.13471c0 1.7919 0.31434 3.3823 0.9429 4.7711 0.67345 1.344 1.5716 2.4859 2.694 3.4266 1.1224 0.94076 2.4242 1.6578 3.9058 2.1506 1.5265 0.44799 3.1431 0.67195 4.8492 0.67195 2.5142 0 4.6468-0.40334 6.3977-1.2097 1.751-0.85116 3.2548-1.971 4.5119-3.3598v3.8976h9.8999v-20.899c0-4.883-1.2798-8.6911-3.8389-11.424-2.5591-2.7327-6.6446-4.0991-12.257-4.0991zm69.164 7.9293c2.155 0 3.8834 0.71702 5.1854 2.1506 1.302 1.3887 2.1103 3.2256 2.4246 5.5104h-15.422c0.40408-2.3295 1.2568-4.189 2.5588-5.5777 1.3469-1.3887 3.0982-2.0832 5.2533-2.0832zm-69.298 12.634c1.2571 0 2.4247 0.13428 3.5022 0.40307 1.1224 0.22398 2.1323 0.53766 3.0302 0.94084v1.8143c0 1.8815-0.74096 3.4048-2.2226 4.5695-1.4367 1.1648-3.3672 1.747-5.7916 1.747-1.6612 0-3.0079-0.38081-4.0405-1.1424-1.0326-0.76158-1.5491-1.8368-1.5491-3.2256v-0.13418c0-1.6127 0.6287-2.8448 1.8858-3.696 1.2571-0.85117 2.9855-1.2766 5.1854-1.2766z" fill="url(#linearGradient2488)"/><text x="236.98199" y="91.969231" fill="#000000" font-family="Gotham" font-size="52.917px" font-weight="bold" stroke-width="3.523" style="paint-order:normal" xml:space="preserve"><tspan x="236.98199" y="91.969231" stroke-width="3.523"/></text></g></svg>
